ffmpeg started on 2025-06-07 at 18:08:13
Report written to "D:\Convert\FFMetrics\reports\ssim_report-6.txt"
Log level: 32
Command line:
ffmpeg -hide_banner -nostdin -i "G:\\\xc0\xed\xe8\xec\xe5\\\xce\xed\xe3\xee\xe8\xed\xe3\xe8\\!_36_\xce\xf1\xe5\xed\xfc_2024\\DreamCast\\\xdf \xf1\xf2\xe0\xed\xf3 \xe7\xeb\xee\xe4\xe5\xe9\xea\xee\xe9, \xea\xee\xf2\xee\xf0\xe0\xff \xe2\xee\xe9\xe4\xb8\xf2 \xe2 \xe8\xf1\xf2\xee\xf0\xe8\xfe\\[DC] Rekishi ni Nokoru Akujo ni Naruzo - 02_Telegram_HEVC.mkv" -i "G:\\\xc0\xed\xe8\xec\xe5\\\xce\xed\xe3\xee\xe8\xed\xe3\xe8\\!_36_\xce\xf1\xe5\xed\xfc_2024\\DreamCast\\\xdf \xf1\xf2\xe0\xed\xf3 \xe7\xeb\xee\xe4\xe5\xe9\xea\xee\xe9, \xea\xee\xf2\xee\xf0\xe0\xff \xe2\xee\xe9\xe4\xb8\xf2 \xe2 \xe8\xf1\xf2\xee\xf0\xe8\xfe\\[DC] Rekishi ni Nokoru Akujo ni Naruzo - 02_Telegram.mp4" -lavfi "[0:v]settb=AVTB,setpts=PTS-STARTPTS,format=pix_fmts=yuv420p10,fps=24000/1001,scale=1920:1080:flags=bicubic[main];[1:v]settb=AVTB,setpts=PTS-STARTPTS,format=pix_fmts=yuv420p,fps=24000/1001,scale=1920:1080:flags=bicubic[ref];[main][ref]ssim=eof_action=endall:stats_file='D\\:/Convert/FFMetrics/logs/ssim_logfile-6.txt'" -f null -
Input #0, matroska,webm, from 'G:\Аниме\Онгоинги\!_36_Осень_2024\DreamCast\Я стану злодейкой, которая войдёт в историю\[DC] Rekishi ni Nokoru Akujo ni Naruzo - 02_Telegram_HEVC.mkv':
  Metadata:
    COMPATIBLE_BRANDS: isomiso2avc1mp41
    MAJOR_BRAND     : isom
    MINOR_VERSION   : 512
    ENCODER         : Lavf61.7.100
  Duration: 00:23:46.69, start: -0.021000, bitrate: 724 kb/s
  Stream #0:0: Video: hevc (Main 10), yuv420p10le(tv, bt709, progressive), 1920x1080 [SAR 1:1 DAR 16:9], 23.98 fps, 23.98 tbr, 1k tbn (default)
      Metadata:
        HANDLER_NAME    : VideoHandler
        VENDOR_ID       : [0][0][0][0]
        ENCODER         : Lavc61.19.100 libx265
        BPS             : 526955
        DURATION        : 00:23:46.591708333
        NUMBER_OF_FRAMES: 34204
        NUMBER_OF_BYTES : 93968680
        _STATISTICS_WRITING_APP: mkvpropedit v66.0.0 ('Josie') 64-bit
        _STATISTICS_WRITING_DATE_UTC: 2025-06-06 09:45:21
        _STATISTICS_TAGS: BPS DURATION NUMBER_OF_FRAMES NUMBER_OF_BYTES
  Stream #0:1: Audio: aac (LC), 48000 Hz, stereo, fltp (default)
      Metadata:
        HANDLER_NAME    : SoundHandler
        VENDOR_ID       : [0][0][0][0]
        ENCODER         : Lavc61.19.100 aac
        BPS             : 193099
        DURATION        : 00:23:46.688000000
        NUMBER_OF_FRAMES: 66877
        NUMBER_OF_BYTES : 34436587
        _STATISTICS_WRITING_APP: mkvpropedit v66.0.0 ('Josie') 64-bit
        _STATISTICS_WRITING_DATE_UTC: 2025-06-06 09:45:21
        _STATISTICS_TAGS: BPS DURATION NUMBER_OF_FRAMES NUMBER_OF_BYTES
Input #1, mov,mp4,m4a,3gp,3g2,mj2, from 'G:\Аниме\Онгоинги\!_36_Осень_2024\DreamCast\Я стану злодейкой, которая войдёт в историю\[DC] Rekishi ni Nokoru Akujo ni Naruzo - 02_Telegram.mp4':
  Metadata:
    major_brand     : isom
    minor_version   : 512
    compatible_brands: isomiso2avc1mp41
    encoder         : Lavf61.1.100
  Duration: 00:23:46.66, start: 0.000000, bitrate: 3334 kb/s
  Stream #1:0[0x1](und): Video: h264 (High) (avc1 / 0x31637661), yuv420p(tv, bt709, progressive), 1920x1080 [SAR 1:1 DAR 16:9], 3186 kb/s, 23.98 fps, 23.98 tbr, 24k tbn (default)
      Metadata:
        handler_name    : VideoHandler
        vendor_id       : [0][0][0][0]
        encoder         : Lavc61.3.100 h264_qsv
  Stream #1:1[0x2](und): Audio: aac (HE-AACv2) (mp4a / 0x6134706D), 48000 Hz, stereo, fltp, 144 kb/s (default)
      Metadata:
        handler_name    : SoundHandler
        vendor_id       : [0][0][0][0]
Stream mapping:
  Stream #0:0 (hevc) -> settb:default
  Stream #1:0 (h264) -> settb:default
  ssim:default -> Stream #0:0 (wrapped_avframe)
  Stream #0:1 -> #0:1 (aac (native) -> pcm_s16le (native))
Output #0, null, to 'pipe:':
  Metadata:
    COMPATIBLE_BRANDS: isomiso2avc1mp41
    MAJOR_BRAND     : isom
    MINOR_VERSION   : 512
    encoder         : Lavf61.7.100
  Stream #0:0: Video: wrapped_avframe, yuv420p10le(tv, bt709, progressive), 1920x1080 [SAR 1:1 DAR 16:9], q=2-31, 200 kb/s, 23.98 fps, 23.98 tbn
      Metadata:
        encoder         : Lavc61.19.100 wrapped_avframe
  Stream #0:1: Audio: pcm_s16le, 48000 Hz, stereo, s16, 1536 kb/s (default)
      Metadata:
        HANDLER_NAME    : SoundHandler
        VENDOR_ID       : [0][0][0][0]
        _STATISTICS_TAGS: BPS DURATION NUMBER_OF_FRAMES NUMBER_OF_BYTES
        BPS             : 193099
        DURATION        : 00:23:46.688000000
        NUMBER_OF_FRAMES: 66877
        NUMBER_OF_BYTES : 34436587
        _STATISTICS_WRITING_APP: mkvpropedit v66.0.0 ('Josie') 64-bit
        _STATISTICS_WRITING_DATE_UTC: 2025-06-06 09:45:21
        encoder         : Lavc61.19.100 pcm_s16le
frame=  187 fps=0.0 q=-0.0 size=N/A time=00:00:07.79 bitrate=N/A speed=15.2x    frame=  444 fps=434 q=-0.0 size=N/A time=00:00:18.51 bitrate=N/A speed=18.1x    frame=  695 fps=450 q=-0.0 size=N/A time=00:00:28.98 bitrate=N/A speed=18.7x    frame=  937 fps=456 q=-0.0 size=N/A time=00:00:39.08 bitrate=N/A speed=  19x    frame= 1133 fps=440 q=-0.0 size=N/A time=00:00:47.25 bitrate=N/A speed=18.4x    frame= 1337 fps=432 q=-0.0 size=N/A time=00:00:55.76 bitrate=N/A speed=  18x    frame= 1549 fps=429 q=-0.0 size=N/A time=00:01:04.60 bitrate=N/A speed=17.9x    frame= 1771 fps=430 q=-0.0 size=N/A time=00:01:13.86 bitrate=N/A speed=17.9x    frame= 1969 fps=425 q=-0.0 size=N/A time=00:01:22.12 bitrate=N/A speed=17.7x    frame= 2176 fps=423 q=-0.0 size=N/A time=00:01:30.75 bitrate=N/A speed=17.6x    frame= 2400 fps=423 q=-0.0 size=N/A time=00:01:40.10 bitrate=N/A speed=17.6x    frame= 2612 fps=422 q=-0.0 size=N/A time=00:01:48.94 bitrate=N/A speed=17.6x    frame= 2792 fps=417 q=-0.0 size=N/A time=00:01:56.44 bitrate=N/A speed=17.4x    frame= 3067 fps=426 q=-0.0 size=N/A time=00:02:07.91 bitrate=N/A speed=17.7x    frame= 3339 fps=432 q=-0.0 size=N/A time=00:02:19.26 bitrate=N/A speed=  18x    frame= 3605 fps=437 q=-0.0 size=N/A time=00:02:30.35 bitrate=N/A speed=18.2x    frame= 3869 fps=441 q=-0.0 size=N/A time=00:02:41.41 bitrate=N/A speed=18.4x    frame= 4137 fps=446 q=-0.0 size=N/A time=00:02:52.54 bitrate=N/A speed=18.6x    frame= 4407 fps=450 q=-0.0 size=N/A time=00:03:03.80 bitrate=N/A speed=18.8x    frame= 4666 fps=453 q=-0.0 size=N/A time=00:03:14.61 bitrate=N/A speed=18.9x    frame= 4917 fps=455 q=-0.0 size=N/A time=00:03:25.07 bitrate=N/A speed=  19x    frame= 5200 fps=458 q=-0.0 size=N/A time=00:03:36.88 bitrate=N/A speed=19.1x    frame= 5488 fps=463 q=-0.0 size=N/A time=00:03:48.89 bitrate=N/A speed=19.3x    frame= 5787 fps=468 q=-0.0 size=N/A time=00:04:01.36 bitrate=N/A speed=19.5x    frame= 6067 fps=471 q=-0.0 size=N/A time=00:04:13.04 bitrate=N/A speed=19.6x    frame= 6337 fps=473 q=-0.0 size=N/A time=00:04:24.30 bitrate=N/A speed=19.7x    frame= 6632 fps=476 q=-0.0 size=N/A time=00:04:36.60 bitrate=N/A speed=19.9x    frame= 6907 fps=479 q=-0.0 size=N/A time=00:04:48.07 bitrate=N/A speed=  20x    frame= 7181 fps=481 q=-0.0 size=N/A time=00:04:59.50 bitrate=N/A speed=  20x    frame= 7452 fps=482 q=-0.0 size=N/A time=00:05:10.81 bitrate=N/A speed=20.1x    frame= 7724 fps=484 q=-0.0 size=N/A time=00:05:22.15 bitrate=N/A speed=20.2x    frame= 8025 fps=486 q=-0.0 size=N/A time=00:05:34.70 bitrate=N/A speed=20.3x    frame= 8307 fps=489 q=-0.0 size=N/A time=00:05:46.47 bitrate=N/A speed=20.4x    frame= 8592 fps=490 q=-0.0 size=N/A time=00:05:58.35 bitrate=N/A speed=20.4x    frame= 8873 fps=492 q=-0.0 size=N/A time=00:06:10.07 bitrate=N/A speed=20.5x    frame= 9155 fps=493 q=-0.0 size=N/A time=00:06:21.83 bitrate=N/A speed=20.6x    frame= 9424 fps=494 q=-0.0 size=N/A time=00:06:33.10 bitrate=N/A speed=20.6x    frame= 9695 fps=495 q=-0.0 size=N/A time=00:06:44.36 bitrate=N/A speed=20.6x    frame= 9962 fps=496 q=-0.0 size=N/A time=00:06:55.49 bitrate=N/A speed=20.7x    frame=10185 fps=494 q=-0.0 size=N/A time=00:07:04.79 bitrate=N/A speed=20.6x    frame=10441 fps=494 q=-0.0 size=N/A time=00:07:15.47 bitrate=N/A speed=20.6x    frame=10717 fps=495 q=-0.0 size=N/A time=00:07:26.98 bitrate=N/A speed=20.6x    frame=10980 fps=495 q=-0.0 size=N/A time=00:07:37.95 bitrate=N/A speed=20.7x    frame=11242 fps=496 q=-0.0 size=N/A time=00:07:48.88 bitrate=N/A speed=20.7x    frame=11536 fps=497 q=-0.0 size=N/A time=00:08:01.14 bitrate=N/A speed=20.7x    frame=11801 fps=498 q=-0.0 size=N/A time=00:08:12.20 bitrate=N/A speed=20.8x    frame=12044 fps=497 q=-0.0 size=N/A time=00:08:22.33 bitrate=N/A speed=20.7x    frame=12328 fps=498 q=-0.0 size=N/A time=00:08:34.18 bitrate=N/A speed=20.8x    frame=12602 fps=499 q=-0.0 size=N/A time=00:08:45.60 bitrate=N/A speed=20.8x    frame=12860 fps=499 q=-0.0 size=N/A time=00:08:56.36 bitrate=N/A speed=20.8x    frame=13135 fps=499 q=-0.0 size=N/A time=00:09:07.83 bitrate=N/A speed=20.8x    frame=13423 fps=501 q=-0.0 size=N/A time=00:09:19.85 bitrate=N/A speed=20.9x    frame=13701 fps=502 q=-0.0 size=N/A time=00:09:31.44 bitrate=N/A speed=20.9x    frame=13964 fps=502 q=-0.0 size=N/A time=00:09:42.41 bitrate=N/A speed=20.9x    frame=14239 fps=502 q=-0.0 size=N/A time=00:09:53.88 bitrate=N/A speed=20.9x    frame=14505 fps=502 q=-0.0 size=N/A time=00:10:04.97 bitrate=N/A speed=  21x    frame=14782 fps=503 q=-0.0 size=N/A time=00:10:16.53 bitrate=N/A speed=  21x    frame=15037 fps=503 q=-0.0 size=N/A time=00:10:27.16 bitrate=N/A speed=  21x    frame=15316 fps=503 q=-0.0 size=N/A time=00:10:38.80 bitrate=N/A speed=  21x    frame=15522 fps=502 q=-0.0 size=N/A time=00:10:47.39 bitrate=N/A speed=20.9x    frame=15793 fps=502 q=-0.0 size=N/A time=00:10:58.69 bitrate=N/A speed=20.9x    frame=16045 fps=502 q=-0.0 size=N/A time=00:11:09.21 bitrate=N/A speed=20.9x    frame=16290 fps=502 q=-0.0 size=N/A time=00:11:19.42 bitrate=N/A speed=20.9x    frame=16569 fps=502 q=-0.0 size=N/A time=00:11:31.06 bitrate=N/A speed=20.9x    frame=16856 fps=503 q=-0.0 size=N/A time=00:11:43.03 bitrate=N/A speed=  21x    frame=17122 fps=503 q=-0.0 size=N/A time=00:11:54.13 bitrate=N/A speed=  21x    frame=17405 fps=504 q=-0.0 size=N/A time=00:12:05.93 bitrate=N/A speed=  21x    frame=17680 fps=504 q=-0.0 size=N/A time=00:12:17.40 bitrate=N/A speed=  21x    frame=17953 fps=505 q=-0.0 size=N/A time=00:12:28.78 bitrate=N/A speed=  21x    frame=18229 fps=505 q=-0.0 size=N/A time=00:12:40.30 bitrate=N/A speed=21.1x    frame=18484 fps=505 q=-0.0 size=N/A time=00:12:50.93 bitrate=N/A speed=21.1x    frame=18735 fps=505 q=-0.0 size=N/A time=00:13:01.40 bitrate=N/A speed=  21x    frame=18990 fps=504 q=-0.0 size=N/A time=00:13:12.04 bitrate=N/A speed=  21x    frame=19227 fps=504 q=-0.0 size=N/A time=00:13:21.92 bitrate=N/A speed=  21x    frame=19501 fps=504 q=-0.0 size=N/A time=00:13:33.35 bitrate=N/A speed=  21x    frame=19756 fps=504 q=-0.0 size=N/A time=00:13:43.98 bitrate=N/A speed=  21x    frame=20029 fps=505 q=-0.0 size=N/A time=00:13:55.37 bitrate=N/A speed=  21x    frame=20301 fps=505 q=-0.0 size=N/A time=00:14:06.72 bitrate=N/A speed=21.1x    frame=20582 fps=505 q=-0.0 size=N/A time=00:14:18.44 bitrate=N/A speed=21.1x    frame=20861 fps=506 q=-0.0 size=N/A time=00:14:30.07 bitrate=N/A speed=21.1x    frame=21102 fps=505 q=-0.0 size=N/A time=00:14:40.12 bitrate=N/A speed=21.1x    frame=21368 fps=505 q=-0.0 size=N/A time=00:14:51.22 bitrate=N/A speed=21.1x    frame=21623 fps=505 q=-0.0 size=N/A time=00:15:01.85 bitrate=N/A speed=21.1x    frame=21852 fps=505 q=-0.0 size=N/A time=00:15:11.41 bitrate=N/A speed=  21x    frame=22107 fps=504 q=-0.0 size=N/A time=00:15:22.04 bitrate=N/A speed=  21x    frame=22396 fps=505 q=-0.0 size=N/A time=00:15:34.09 bitrate=N/A speed=21.1x    frame=22675 fps=506 q=-0.0 size=N/A time=00:15:45.73 bitrate=N/A speed=21.1x    frame=22933 fps=505 q=-0.0 size=N/A time=00:15:56.49 bitrate=N/A speed=21.1x    frame=23202 fps=506 q=-0.0 size=N/A time=00:16:07.71 bitrate=N/A speed=21.1x    frame=23456 fps=505 q=-0.0 size=N/A time=00:16:18.31 bitrate=N/A speed=21.1x    frame=23691 fps=505 q=-0.0 size=N/A time=00:16:28.11 bitrate=N/A speed=21.1x    frame=23946 fps=505 q=-0.0 size=N/A time=00:16:38.74 bitrate=N/A speed=21.1x    frame=24222 fps=505 q=-0.0 size=N/A time=00:16:50.25 bitrate=N/A speed=21.1x    frame=24482 fps=505 q=-0.0 size=N/A time=00:17:01.10 bitrate=N/A speed=21.1x    frame=24738 fps=505 q=-0.0 size=N/A time=00:17:11.78 bitrate=N/A speed=21.1x    frame=24996 fps=505 q=-0.0 size=N/A time=00:17:22.54 bitrate=N/A speed=21.1x    frame=25280 fps=505 q=-0.0 size=N/A time=00:17:34.38 bitrate=N/A speed=21.1x    frame=25534 fps=505 q=-0.0 size=N/A time=00:17:44.98 bitrate=N/A speed=21.1x    frame=25808 fps=506 q=-0.0 size=N/A time=00:17:56.40 bitrate=N/A speed=21.1x    frame=26051 fps=505 q=-0.0 size=N/A time=00:18:06.54 bitrate=N/A speed=21.1x    frame=26332 fps=506 q=-0.0 size=N/A time=00:18:18.26 bitrate=N/A speed=21.1x    frame=26626 fps=506 q=-0.0 size=N/A time=00:18:30.52 bitrate=N/A speed=21.1x    frame=26909 fps=507 q=-0.0 size=N/A time=00:18:42.32 bitrate=N/A speed=21.1x    frame=27132 fps=506 q=-0.0 size=N/A time=00:18:51.63 bitrate=N/A speed=21.1x    frame=27405 fps=506 q=-0.0 size=N/A time=00:19:03.01 bitrate=N/A speed=21.1x    frame=27661 fps=506 q=-0.0 size=N/A time=00:19:13.69 bitrate=N/A speed=21.1x    frame=27918 fps=506 q=-0.0 size=N/A time=00:19:24.41 bitrate=N/A speed=21.1x    frame=28198 fps=506 q=-0.0 size=N/A time=00:19:36.09 bitrate=N/A speed=21.1x    frame=28443 fps=506 q=-0.0 size=N/A time=00:19:46.31 bitrate=N/A speed=21.1x    frame=28718 fps=506 q=-0.0 size=N/A time=00:19:57.77 bitrate=N/A speed=21.1x    frame=28949 fps=506 q=-0.0 size=N/A time=00:20:07.41 bitrate=N/A speed=21.1x    frame=29224 fps=506 q=-0.0 size=N/A time=00:20:18.88 bitrate=N/A speed=21.1x    frame=29495 fps=506 q=-0.0 size=N/A time=00:20:30.18 bitrate=N/A speed=21.1x    frame=29754 fps=506 q=-0.0 size=N/A time=00:20:40.98 bitrate=N/A speed=21.1x    frame=29998 fps=506 q=-0.0 size=N/A time=00:20:51.16 bitrate=N/A speed=21.1x    frame=30253 fps=506 q=-0.0 size=N/A time=00:21:01.80 bitrate=N/A speed=21.1x    frame=30521 fps=506 q=-0.0 size=N/A time=00:21:12.98 bitrate=N/A speed=21.1x    frame=30787 fps=506 q=-0.0 size=N/A time=00:21:24.07 bitrate=N/A speed=21.1x    frame=31060 fps=506 q=-0.0 size=N/A time=00:21:35.46 bitrate=N/A speed=21.1x    frame=31300 fps=506 q=-0.0 size=N/A time=00:21:45.47 bitrate=N/A speed=21.1x    frame=31556 fps=506 q=-0.0 size=N/A time=00:21:56.14 bitrate=N/A speed=21.1x    frame=31812 fps=506 q=-0.0 size=N/A time=00:22:06.82 bitrate=N/A speed=21.1x    frame=32027 fps=505 q=-0.0 size=N/A time=00:22:15.79 bitrate=N/A speed=21.1x    frame=32281 fps=505 q=-0.0 size=N/A time=00:22:26.38 bitrate=N/A speed=21.1x    frame=32530 fps=505 q=-0.0 size=N/A time=00:22:36.77 bitrate=N/A speed=21.1x    frame=32755 fps=504 q=-0.0 size=N/A time=00:22:46.15 bitrate=N/A speed=  21x    frame=33035 fps=505 q=-0.0 size=N/A time=00:22:57.83 bitrate=N/A speed=  21x    frame=33292 fps=505 q=-0.0 size=N/A time=00:23:08.55 bitrate=N/A speed=  21x    frame=33516 fps=504 q=-0.0 size=N/A time=00:23:17.89 bitrate=N/A speed=  21x    frame=33776 fps=504 q=-0.0 size=N/A time=00:23:28.74 bitrate=N/A speed=  21x    frame=34044 fps=504 q=-0.0 size=N/A time=00:23:39.91 bitrate=N/A speed=  21x    [Parsed_ssim_10 @ 000001a7a5b01e40] SSIM Y:0.995082 (23.082124) U:0.994656 (22.721261) V:0.994883 (22.909512) All:0.994978 (22.991025)
[out#0/null @ 000001a798a16540] video:14697KiB audio:267508KiB subtitle:0KiB other streams:0KiB global headers:0KiB muxing overhead: unknown
frame=34204 fps=504 q=-0.0 Lsize=N/A time=00:23:46.59 bitrate=N/A speed=  21x    
